<svg width="1600" height="950" viewBox="0 0 1600 950" fill="none" xmlns="http://www.w3.org/2000/svg">
<rect width="1600" height="950" fill="#DBDDF1"/>
<circle cx="1350" cy="150" r="190" fill="#F5820B" opacity=".28"/>
<circle cx="180" cy="820" r="220" fill="#2F2B8F" opacity=".18"/>
<path d="M230 640L365 330H520L385 640H230Z" fill="#BEC2DD"/>
<path d="M370 640L520 245H845L695 640H370Z" fill="#AEB4D4"/>
<path d="M650 640L850 260H1205L1010 640H650Z" fill="#C9CDE2"/>
<rect x="480" y="375" width="440" height="265" rx="10" fill="#ECEEFA"/>
<rect x="540" y="420" width="52" height="88" rx="4" fill="#6F72AA"/>
<rect x="620" y="420" width="52" height="88" rx="4" fill="#6F72AA"/>
<rect x="700" y="420" width="52" height="88" rx="4" fill="#6F72AA"/>
<rect x="780" y="420" width="52" height="88" rx="4" fill="#6F72AA"/>
<rect x="860" y="420" width="52" height="88" rx="4" fill="#6F72AA"/>
<rect x="525" y="552" width="400" height="26" rx="13" fill="#F5820B" opacity=".75"/>
<path d="M210 275C380 90 690 55 965 120C1190 174 1345 278 1448 445" stroke="#8F94C3" stroke-width="54" stroke-linecap="round"/>
<path d="M290 290C455 150 715 118 940 164C1135 204 1268 294 1370 440" stroke="#D7DAED" stroke-width="28" stroke-linecap="round"/>
<rect y="640" width="1600" height="310" fill="#A8AECF"/>
<rect y="758" width="1600" height="192" fill="#8E95BD"/>
<rect x="160" y="690" width="1210" height="36" rx="18" fill="#F5820B" opacity=".75"/>
<g opacity=".22">
<rect x="80" y="75" width="15" height="70" rx="5" fill="#2F2B8F"/>
<rect x="105" y="45" width="15" height="100" rx="5" fill="#2F2B8F"/>
<rect x="130" y="95" width="15" height="50" rx="5" fill="#2F2B8F"/>
<rect x="1480" y="705" width="15" height="70" rx="5" fill="#FFFFFF"/>
<rect x="1505" y="675" width="15" height="100" rx="5" fill="#FFFFFF"/>
<rect x="1530" y="725" width="15" height="50" rx="5" fill="#FFFFFF"/>
</g>
</svg>