<svg width="1200" height="650" viewBox="0 0 1200 650" fill="none" xmlns="http://www.w3.org/2000/svg">
<rect width="1200" height="650" fill="#d8d8e8"/>
<rect x="0" y="0" width="1200" height="650" fill="#2F2B8F" opacity=".15"/>
<path d="M125 470L245 250L363 470H125Z" fill="#C7CADB"/>
<rect x="345" y="210" width="520" height="260" rx="4" fill="#C3C6D8"/>
<path d="M280 470L420 150L650 470H280Z" fill="#AEB4CF"/>
<path d="M470 470L675 165L920 470H470Z" fill="#B7BCD4"/>
<rect x="405" y="255" width="380" height="215" fill="#DCE0EE"/>
<g opacity=".75">
<rect x="430" y="280" width="48" height="80" fill="#6E74A6"/>
<rect x="500" y="280" width="48" height="80" fill="#6E74A6"/>
<rect x="570" y="280" width="48" height="80" fill="#6E74A6"/>
<rect x="640" y="280" width="48" height="80" fill="#6E74A6"/>
<rect x="710" y="280" width="48" height="80" fill="#6E74A6"/>
</g>
<path d="M160 190C270 70 465 45 635 70C804 95 1010 165 1088 330" stroke="#8388B6" stroke-width="32" stroke-linecap="round"/>
<path d="M215 205C330 105 483 88 620 107C780 128 925 186 1025 326" stroke="#BFC3DB" stroke-width="18" stroke-linecap="round"/>
<rect x="0" y="470" width="1200" height="180" fill="#BFC3D6"/>
<rect x="0" y="560" width="1200" height="90" fill="#9CA3C1"/>
<rect x="90" y="500" width="1020" height="22" rx="11" fill="#F5820B" opacity=".65"/>
<circle cx="190" cy="120" r="52" fill="#F5820B" opacity=".45"/>
<circle cx="1010" cy="110" r="72" fill="#2F2B8F" opacity=".24"/>
</svg>